<svg width="280" height="280" viewBox="0 0 280 280" fill="none" xmlns="http://www.w3.org/2000/svg">
<path d="M27.7363 30.7744H252.314V249.227H27.7363V30.7744Z" fill="#1C0A00"/>
<path d="M27.7287 30.7747H252.306V249.227H27.7287V30.7747ZM17.5 259.438H262.5V20.5635H17.5V259.438ZM177.975 105.701C177.975 104.887 178.281 104.476 179.2 104.476H195.23C196.044 104.476 196.455 104.782 196.455 105.701V186.245C196.455 187.058 196.254 187.47 195.23 187.47H179.419C178.395 187.47 178.089 186.962 178.089 186.14V105.701H177.984H177.975ZM176.855 82.531C176.855 79.7694 177.952 77.1209 179.905 75.1682C181.857 73.2155 184.506 72.1185 187.268 72.1185C190.029 72.1185 192.678 73.2155 194.63 75.1682C196.583 77.1209 197.68 79.7694 197.68 82.531C197.781 83.9417 197.574 85.3575 197.073 86.6803C196.573 88.003 195.791 89.2012 194.781 90.1916C193.771 91.1821 192.559 91.9412 191.226 92.4164C189.894 92.8915 188.475 93.0714 187.066 92.9435C185.686 93.03 184.304 92.8183 183.013 92.3225C181.722 91.8268 180.553 91.0587 179.586 90.0706C178.619 89.0826 177.876 87.8977 177.407 86.5966C176.939 85.2955 176.757 83.9089 176.873 82.531H176.855ZM130.917 139.292C128.056 127.917 121.293 103.26 118.773 91.316H118.571C116.427 103.26 111.02 123.472 106.732 139.292H130.917ZM102.541 155.83L94.4737 186.455C94.2725 187.268 93.9662 187.478 92.9425 187.478H77.9538C76.93 187.478 76.7287 187.172 76.93 185.947L105.919 84.4472C106.624 81.6799 106.968 78.8329 106.943 75.9772C106.943 75.2597 107.249 74.9535 107.756 74.9535H129.194C129.911 74.9535 130.217 75.1547 130.419 75.9772L162.881 186.122C163.082 186.936 162.881 187.452 162.067 187.452H145.119C144.305 187.452 143.789 187.251 143.587 186.577L135.214 155.847H102.55L102.541 155.83Z" fill="#FF7F18"/>
</svg>
