<svg width="213" height="300" viewBox="0 0 213 300" fill="none" xmlns="http://www.w3.org/2000/svg">
<g clip-path="url(#clip0)">
<path d="M106.242 299.242L19.664 275.207L0.370117 58.8083H212.373L193.059 275.174L106.242 299.242V299.242Z" fill="#264DE4"/>
<path d="M176.524 261.396L193.028 76.5017H106.371V280.845L176.524 261.396V261.396Z" fill="#2965F1"/>
<path d="M44.6006 156.761L46.979 183.302H106.372V156.761H44.6006Z" fill="#EBEBEB"/>
<path d="M39.8203 103.043L42.2328 129.583H106.371V103.043H39.8203V103.043Z" fill="#EBEBEB"/>
<path d="M106.371 225.69L106.254 225.72L76.6965 217.739L74.8067 196.572H48.1641L51.8821 238.245L106.249 253.336L106.371 253.303V225.69Z" fill="#EBEBEB"/>
<path d="M50.2637 0H82.4077V13.4427H63.7063V26.8853H82.4094V40.3271H50.2637V0Z" fill="black"/>
<path d="M88.8377 0H120.983V11.6892H102.28V14.0269H120.983V40.9122H88.8386V28.6371H107.541V26.2994H88.8369V0H88.8377Z" fill="black"/>
<path d="M127.412 0H159.557V11.6892H140.855V14.0269H159.557V40.9122H127.412V28.6371H146.114V26.2994H127.413V0H127.412Z" fill="black"/>
<path d="M167.973 156.761L172.764 103.043H106.28V129.583H143.678L141.263 156.761H106.28V183.302H138.962L135.88 217.723L106.279 225.712V253.324L160.689 238.245L161.088 233.761L167.326 163.888L167.973 156.761V156.761Z" fill="white"/>
</g>
<defs>
<clipPath id="clip0">
<rect width="212.742" height="300" fill="white"/>
</clipPath>
</defs>
</svg>
