<svg width="207" height="207" viewBox="0 0 207 207" fill="none" xmlns="http://www.w3.org/2000/svg">
<path d="M138 138C157.054 138 172.5 122.554 172.5 103.5C172.5 84.4462 157.054 69 138 69C118.946 69 103.5 84.4462 103.5 103.5C103.5 122.554 118.946 138 138 138Z" fill="#19BCFE"/>
<path fill-rule="evenodd" clip-rule="evenodd" d="M69 207C78.15 207 86.9252 203.365 93.3952 196.895C99.8652 190.425 103.5 181.65 103.5 172.5V138H69C59.85 138 51.0748 141.635 44.6048 148.105C38.1348 154.575 34.5 163.35 34.5 172.5C34.5 181.65 38.1348 190.425 44.6048 196.895C51.0748 203.365 59.85 207 69 207V207Z" fill="#09CF83"/>
<path fill-rule="evenodd" clip-rule="evenodd" d="M69 138H103.5V69H69C59.85 69 51.0748 72.6348 44.6048 79.1048C38.1348 85.5748 34.5 94.35 34.5 103.5C34.5 112.65 38.1348 121.425 44.6048 127.895C51.0748 134.365 59.85 138 69 138V138Z" fill="#A259FF"/>
<path fill-rule="evenodd" clip-rule="evenodd" d="M69 69H103.5V0H69C59.85 0 51.0748 3.63481 44.6048 10.1048C38.1348 16.5748 34.5 25.35 34.5 34.5C34.5 43.65 38.1348 52.4252 44.6048 58.8952C51.0748 65.3652 59.85 69 69 69V69Z" fill="#F24E1E"/>
<path fill-rule="evenodd" clip-rule="evenodd" d="M138 69H103.5V0H138C147.15 0 155.925 3.63481 162.395 10.1048C168.865 16.5748 172.5 25.35 172.5 34.5C172.5 43.65 168.865 52.4252 162.395 58.8952C155.925 65.3652 147.15 69 138 69Z" fill="#FF7262"/>
</svg>
