<svg width="269" height="269" viewBox="0 0 269 269" fill="none" xmlns="http://www.w3.org/2000/svg">
<path d="M117.904 3.32817C52.7696 3.32817 0 56.142 0 121.233C0 173.354 33.7796 217.531 80.595 233.116C86.5123 234.229 88.6493 230.581 88.6493 227.428C88.6493 224.627 88.583 217.221 88.5388 207.391C55.7246 214.495 48.8124 191.54 48.8124 191.54C43.4404 177.952 35.6882 174.304 35.6882 174.304C25.0178 167.016 36.5356 167.171 36.5356 167.171C48.3555 167.974 54.575 179.293 54.575 179.293C65.0906 197.332 82.1646 192.115 88.922 189.079C89.9537 181.482 93.0265 176.257 96.3721 173.346C70.1973 170.391 42.674 160.259 42.674 115.079C42.674 102.176 47.2428 91.668 54.7961 83.4147C53.4917 80.4597 49.4977 68.4482 55.8351 52.2069C55.8351 52.2069 65.7022 49.0603 88.2588 64.2995C97.8673 61.6861 107.777 60.3458 117.735 60.3128C127.757 60.3791 137.771 61.6908 147.211 64.2995C169.635 49.0603 179.495 52.2069 179.495 52.2069C185.825 68.4482 181.831 80.4524 180.681 83.4147C188.161 91.668 192.729 102.184 192.729 115.079C192.729 160.362 165.169 170.347 138.965 173.228C143.062 176.758 146.901 184.017 146.901 195.033C146.901 210.803 146.754 223.507 146.754 227.346C146.754 230.412 148.817 234.096 154.889 232.91C202.051 217.487 235.794 173.273 235.794 121.225C235.794 56.1346 183.024 3.3208 117.89 3.3208L117.904 3.32817Z" fill="black"/>
</svg>
