<svg width="213" height="300" viewBox="0 0 213 300" fill="none" xmlns="http://www.w3.org/2000/svg">
<g clip-path="url(#clip0)">
<path d="M212.373 58.8083L193.059 275.174L106.242 299.242L19.664 275.207L0.370117 58.8083H212.373Z" fill="#E44D26"/>
<path d="M106.371 280.845L176.524 261.396L193.028 76.5017H106.371V280.845Z" fill="#F16529"/>
<path d="M68.8256 129.583H106.371V103.043H39.8203L40.4552 110.163L46.9788 183.302H106.371V156.761H71.2513L68.8256 129.583V129.583Z" fill="#EBEBEB"/>
<path d="M74.8067 196.572H48.1641L51.8821 238.245L106.249 253.336L106.371 253.303V225.69L106.254 225.72L76.6965 217.739L74.8067 196.572V196.572Z" fill="#EBEBEB"/>
<path d="M20.0938 0H33.5813V13.3255H45.9195V0H59.4079V40.3529H45.9203V26.8404H33.5821V40.3529H20.0946V0H20.0938Z" fill="black"/>
<path d="M77.1445 13.382H65.2725V0H102.514V13.382H90.6345V40.3529H77.147V13.382H77.1461H77.1445Z" fill="black"/>
<path d="M108.424 0H122.487L131.138 14.1789L139.781 0H153.85V40.3529H140.417V20.3518L131.138 34.6994H130.906L121.621 20.3518V40.3529H108.424V0Z" fill="black"/>
<path d="M160.562 0H174.054V27.015H193.021V40.3529H160.562V0H160.562Z" fill="black"/>
<path d="M106.28 183.302H138.962L135.88 217.723L106.279 225.712V253.324L160.689 238.245L161.088 233.761L167.326 163.888L167.973 156.761H106.28V183.302Z" fill="white"/>
<path d="M106.28 129.519V129.583H170.388L170.92 123.618L172.13 110.163L172.764 103.043H106.28V129.519V129.519Z" fill="white"/>
</g>
<defs>
<clipPath id="clip0">
<rect width="212.742" height="300" fill="white"/>
</clipPath>
</defs>
</svg>
