<svg width="367" height="83" viewBox="0 0 367 83" fill="none" xmlns="http://www.w3.org/2000/svg">
<g clip-path="url(#clip0)">
<path fill-rule="evenodd" clip-rule="evenodd" d="M351.029 6.18677L366.383 6.2712C366.383 6.2712 337.837 44.8834 335.506 48.0302C334.749 49.0491 333.6 50.1482 333.016 51.5105C331.542 54.935 330.028 62.4472 330.028 62.4472L315.979 62.5173C315.979 62.5173 318.165 54.6867 318.075 50.5159C317.996 46.8725 316.133 43.2334 315.088 39.5792C314.031 35.88 312.597 28.6418 312.597 28.6418H327.04L329.032 36.5963L351.029 6.18677" fill="#1A1918"/>
<path fill-rule="evenodd" clip-rule="evenodd" d="M321.954 14.3301C324.788 16.0352 326.527 25.4414 326.527 25.4414C326.527 25.4414 311.701 25.6596 303.632 25.6596H296.66L288.193 62.4472H275.245C275.245 62.4472 283.303 22.4684 285.206 15.2202C285.822 12.8733 289.429 13.2761 295.52 13.2761H305.246C311.526 13.2761 318.867 12.4755 321.954 14.3301" fill="#1A1918"/>
<path fill-rule="evenodd" clip-rule="evenodd" d="M261.675 32.2463C261.675 32.2463 262.078 29.8851 260.305 27.1504C258.791 24.8192 257.392 24.2769 253.408 24.1524C242.158 23.7996 242.376 32.1218 242.376 32.1218L261.675 32.2463ZM273.876 22.7156C275.524 28.6523 272.382 42.6013 272.382 42.6013C272.382 42.6013 255.972 42.328 246.983 42.6013C244.188 42.6864 240.843 42.2979 240.011 43.5959C238.84 45.4147 240.439 48.2145 241.793 49.3973C243.352 50.7589 246.39 50.9142 247.481 51.0523C254.777 51.9774 270.046 51.2912 270.046 51.2912L267.401 62.9828C267.401 62.9828 245.823 64.0632 235.03 61.4917C232.899 60.9851 230.902 59.9612 229.552 58.5094C229.184 58.1123 228.864 57.5706 228.515 57.1027C228.237 56.7292 227.426 55.5021 227.062 54.5318C224.597 47.9748 227.351 35.4132 230.05 28.6816C230.363 27.9017 230.757 26.9121 231.171 26.0714C231.689 25.0232 232.127 23.8397 232.54 23.2129C232.818 22.7807 233.163 22.5024 233.452 22.0946C233.785 21.6123 234.173 21.1451 234.532 20.7279C235.529 19.5745 236.659 18.7588 238.019 17.7456C242.515 14.3841 250.653 11.7747 260.429 12.7735C264.11 13.1513 269.669 14.4636 272.382 18.2422C273.109 19.2511 273.468 21.2545 273.876 22.7163V22.7156Z" fill="#1A1918"/>
<path fill-rule="evenodd" clip-rule="evenodd" d="M214.487 13.2304L227.042 13.1567C227.042 13.1567 220.045 46.2902 216.479 62.4473H202.036C191.942 62.4473 182.952 63.6951 179.127 56.4813C175.417 49.4771 178.958 37.9587 180.621 30.1331C181.797 24.595 184.273 13.2755 184.273 13.2755L197.281 13.1567C197.281 13.1567 193.605 30.7799 192.076 39.5794C191.528 42.7312 190.398 45.6992 191.578 48.0296C192.699 50.2477 194.268 50.4066 199.048 50.516C200.563 50.5518 205.523 50.516 205.523 50.516L214.487 13.2304" fill="#1A1918"/>
<path fill-rule="evenodd" clip-rule="evenodd" d="M155.72 37.0926C157.035 32.4303 158.952 27.3745 158.708 23.173C158.445 18.6795 154.67 14.5882 152.234 13.7281C144.899 11.143 138.031 14.757 135.301 17.705C131.771 21.523 130.575 25.9828 129.325 32.1227C128.394 36.6805 127.632 41.4924 129.325 45.047C132.322 51.3314 141.671 49.9591 151.736 50.0192C153.23 46.0223 154.465 41.5331 155.72 37.0926ZM173.151 18.6996C174.585 29.1089 169.083 40.5987 165.292 50.5902C169.157 50.9386 172.544 50.5365 172.788 50.8241C173.042 51.1969 170.197 62.7504 169.206 62.7804C166.139 62.8598 155.975 62.9443 151.736 62.9443C137.906 62.9443 124.967 63.8437 118.369 56.979C115.69 54.1899 113.837 49.4067 113.388 46.0416C112.641 40.4241 113.578 34.2392 114.883 29.1397C116.063 24.5353 117.577 20.1907 119.863 16.2131C125.675 6.08713 135.785 -1.42938 152.732 0.305748C156.019 0.643472 160.74 2.08023 163.689 3.78531C163.892 3.9048 164.606 4.47149 164.769 4.57095C168.754 7.10173 172.384 13.1414 173.151 18.6996V18.6996Z" fill="#1A1918"/>
<path fill-rule="evenodd" clip-rule="evenodd" d="M111.959 13.2901C111.123 17.0931 110.286 21.4041 109.405 25.162H95.46C96.5402 20.9962 97.3673 16.8548 98.4483 13.2307C102.91 13.2307 107.059 13.2901 111.96 13.2901" fill="#1A1918"/>
<path fill-rule="evenodd" clip-rule="evenodd" d="M94.9619 28.6423H108.409C106.651 38.3562 103.169 54.0253 100.44 64.9327C98.7323 71.7587 97.5919 76.7394 92.9699 80.3435C92.5564 80.6669 92.3177 80.513 91.9736 80.8407C91.122 81.6514 87.1825 82.5916 85.002 82.8292C81.456 83.2127 77.447 82.8793 73.0889 82.7898C74.2293 78.6291 75.5195 73.6326 76.5359 69.9033C87.1589 71.187 87.4277 61.164 89.4842 51.5103C90.674 45.9321 94.2802 30.879 94.9619 28.6423" fill="#1A1918"/>
<path fill-rule="evenodd" clip-rule="evenodd" d="M63.5857 53.9958L63.2976 54.7414C58.3875 64.2864 49.6863 70.1422 37.2757 70.4005C31.474 70.52 25.946 69.0338 22.3348 67.4182C14.5418 63.9229 7.98669 57.441 4.407 50.5155C-0.728129 40.5877 -1.65423 26.7775 9.02318 16.4626C9.18804 16.4626 7.72792 18.6994 7.89279 18.6994L7.5989 19.6539C-0.0951975 43.6995 23.61 64.3064 46.6536 61.9495C52.1915 61.3828 59.2534 58.3555 63.5857 53.9958Z" fill="#21609B"/>
<path fill-rule="evenodd" clip-rule="evenodd" d="M49.6416 44.0531C55.439 44.0924 61.4945 41.3878 65.0807 37.5905C61.9433 45.5399 52.8593 50.6494 40.678 49.0245C30.478 47.6621 20.7618 37.4166 19.7612 27.1504C19.0293 19.679 21.6378 15.2199 25.9364 9.81055C24.4426 12.6397 23.8842 14.8213 23.7452 16.213C22.1123 32.3751 36.679 43.9679 49.6416 44.0531" fill="#21609B"/>
<path fill-rule="evenodd" clip-rule="evenodd" d="M64.4977 23.9784C63.5967 26.042 58.4078 29.9387 56.1162 30.426C47.0422 32.3557 41.2312 28.0605 38.1869 23.1728C37.7346 22.4429 36.8981 20.4495 36.7483 19.9422C35.5678 15.9353 36.1104 9.87486 39.632 6.73804C38.5711 9.72103 38.4163 13.1856 38.9747 15.438C39.313 16.7996 40.3438 19.1773 41.3752 20.6727C43.2518 23.3967 44.4424 24.0586 46.853 25.5053C47.939 26.1565 49.1037 26.6788 49.6069 26.8219C51.8928 27.4938 56.719 29.2632 64.4984 23.9784" fill="#21609B"/>
</g>
<defs>
<clipPath id="clip0">
<rect width="367" height="83" fill="white"/>
</clipPath>
</defs>
</svg>
