<svg width="220" height="220" viewBox="0 0 220 220" fill="none" xmlns="http://www.w3.org/2000/svg">
<path d="M0 0H220V220H0V0Z" fill="#F7DF1E"/>
<path d="M57.8475 183.847L74.6827 173.658C77.9311 179.417 80.8857 184.289 87.9729 184.289C94.7663 184.289 99.0503 181.632 99.0503 171.295V101H119.724V171.588C119.724 193.001 107.172 202.748 88.8589 202.748C72.3203 202.748 62.7202 194.182 57.8467 183.845" fill="black"/>
<path d="M130.949 181.632L147.783 171.886C152.214 179.123 157.974 184.439 168.163 184.439C176.73 184.439 182.192 180.156 182.192 174.248C182.192 167.16 176.58 164.649 167.129 160.515L161.961 158.298C147.045 151.95 137.151 143.975 137.151 127.14C137.151 111.633 148.965 99.8186 167.425 99.8186C180.569 99.8186 190.02 104.397 196.812 116.359L180.715 126.697C177.17 120.347 173.332 117.837 167.424 117.837C161.369 117.837 157.53 121.677 157.53 126.697C157.53 132.899 161.369 135.411 170.229 139.251L175.398 141.466C192.972 148.998 202.866 156.677 202.866 173.953C202.866 192.562 188.246 202.751 168.605 202.751C149.408 202.751 137.003 193.595 130.948 181.633" fill="black"/>
</svg>
