<svg width="280" height="280" viewBox="0 0 280 280" fill="none" xmlns="http://www.w3.org/2000/svg">
<path d="M27.7188 30.7744H252.296V249.227H27.7188V30.7744Z" fill="#0C0824"/>
<path d="M27.7113 30.7747H252.289V249.227H27.7113V30.7747ZM17.5 259.438H262.5V20.5635H17.5V259.438ZM182.674 118.563C174.606 118.563 171.85 122.65 171.85 126.018C171.85 129.693 173.687 132.248 184.511 137.857C200.541 145.618 205.511 153.065 205.511 163.993C205.511 180.33 193.06 189.106 176.216 189.106C168.987 189.374 161.803 187.872 155.286 184.731C154.569 184.425 154.472 183.917 154.472 183.095V168.071C154.472 167.047 154.98 166.741 155.698 167.257C161.817 171.192 168.941 173.282 176.216 173.277C184.284 173.277 187.652 169.908 187.652 165.315C187.652 161.64 185.308 158.376 174.991 153.065C160.493 146.126 154.472 139.065 154.472 127.34C154.472 114.171 164.78 103.251 182.648 103.251C188.867 102.984 195.077 103.957 200.917 106.112C201.254 106.331 201.526 106.634 201.706 106.993C201.886 107.351 201.967 107.751 201.941 108.151V122.151C201.941 122.965 201.434 123.481 200.41 123.175C195.013 120.068 188.875 118.48 182.648 118.581L182.674 118.563ZM94.8763 130.708C97.2213 130.91 99.0588 130.91 103.145 130.91C115.089 130.91 126.315 126.727 126.315 110.496C126.315 97.5285 118.248 91.001 104.676 91.001C100.59 91.001 96.7138 91.2022 94.8763 91.3072V130.708ZM76.7025 76.4585C76.7025 75.741 78.1287 75.2335 78.9512 75.2335C87.7257 74.8749 96.507 74.7057 105.289 74.726C133.569 74.726 144.594 90.2397 144.594 110.05C144.594 135.976 125.807 147.106 102.742 147.106C98.8662 147.106 97.5362 146.905 94.78 146.905V186.105C94.78 186.918 94.4738 187.33 93.555 187.33H77.9362C77.1225 187.33 76.7113 187.023 76.7113 186.105V76.5022L76.7025 76.4585Z" fill="#31C5F0"/>
</svg>
