<svg width="256" height="205" viewBox="0 0 256 205" fill="none" xmlns="http://www.w3.org/2000/svg">
<path d="M39.4577 141.089L26.0657 145.981L25.3457 185.822L71.7057 168.886C55.8057 163.546 44.1937 154.148 39.4577 141.089" fill="#FDBD39"/>
<path d="M46.467 98.95L0 115.925L26.066 145.981L39.458 141.089C34.736 128.068 37.648 113.349 46.467 98.95" fill="#F69833"/>
<path d="M124.662 41.462C65.4907 63.078 27.3437 107.682 39.4577 141.089L253.735 62.81C241.621 29.403 183.833 19.845 124.662 41.46" fill="#FECF33"/>
<path d="M168.532 162.438C227.702 140.822 265.922 96.415 253.735 62.811L39.458 141.089C51.644 174.693 109.361 184.053 168.532 162.438Z" fill="#EE6723"/>
<path d="M253.735 62.8101L39.458 141.09C43.654 152.66 59.654 158.36 82.105 158.36C103.992 158.36 132.01 152.947 161.22 142.276C220.391 120.66 262.022 85.6621 253.735 62.8121" fill="#F69833"/>
<path d="M211.089 45.54C189.201 45.54 161.183 50.954 131.973 61.624C72.8031 83.24 31.1721 118.238 39.4581 141.089L253.735 62.81C249.54 51.24 233.54 45.54 211.09 45.54" fill="#FDBD39"/>
<path d="M199.255 187.932H199.253C192.949 187.932 183.648 182.237 171.609 171.006C157.365 157.719 141.049 138.258 125.667 116.207C110.284 94.1571 97.6436 72.1131 90.0746 54.1351C81.8276 34.5421 80.6516 22.4951 86.5796 18.3291C87.8796 17.4161 89.4466 16.9541 91.2356 16.9541C96.0576 16.9541 105.453 20.5441 122.826 37.6471L123.206 38.0211L123.154 38.5521C123.035 39.7795 122.926 41.0079 122.828 42.2371L122.635 44.6531L120.93 42.9361C102.212 24.0781 93.9716 22.0421 91.2976 22.0421C90.5346 22.0421 89.9276 22.1971 89.4926 22.5031C86.9206 24.3101 86.7556 33.1581 94.7506 52.1511C102.185 69.8091 114.641 91.5211 129.825 113.284C145.01 135.05 161.075 154.224 175.065 167.274C190.149 181.345 196.947 182.864 199.169 182.864C199.936 182.864 200.56 182.7 201.022 182.374C203.735 180.469 203.738 170.99 194.822 150.547L194.412 149.609L195.309 149.119C196.205 148.628 197.072 148.145 197.884 147.683L198.958 147.073L199.452 148.206C205.774 162.691 211.684 181.101 203.935 186.549C202.629 187.466 201.055 187.932 199.255 187.932ZM199.253 185.697H199.255L199.254 186.814V185.697H199.253Z" fill="#EE6723"/>
<path d="M169.968 161.827L169.878 162.94C168.382 181.45 164.443 203.704 154.173 204.604C153.967 204.623 153.753 204.632 153.538 204.632C146.562 204.632 139.961 194.636 133.921 174.922C128.205 156.271 123.771 131.229 121.433 104.409C119.095 77.594 119.13 52.159 121.531 32.791C124.15 11.685 129.132 0.662 136.341 0.03C136.555 0.01 136.776 0 136.994 0C142.055 0 149.683 5.73 157.491 32.424L152.393 33.408C149.786 24.488 146.944 17.233 144.123 12.248C141.514 7.637 138.977 5.098 136.98 5.098C136.914 5.098 136.848 5.1 136.783 5.105C133.658 5.38 129.107 12.96 126.569 33.42C124.211 52.442 124.182 77.495 126.489 103.965C128.798 130.439 133.16 155.107 138.773 173.425C141.286 181.628 144.043 188.389 146.746 192.977C149.238 197.207 151.65 199.537 153.536 199.537C153.602 199.537 153.666 199.534 153.731 199.529C156.721 199.267 162.356 191.379 164.727 163.625L169.968 161.827" fill="#EE6723"/>
</svg>
