<svg width="41" height="63" viewBox="0 0 41 63" fill="none" xmlns="http://www.w3.org/2000/svg">
<path d="M32.3125 3.9375C33.3568 3.9375 34.3583 4.35234 35.0967 5.09077C35.8352 5.82919 36.25 6.83071 36.25 7.875V55.125C36.25 56.1693 35.8352 57.1708 35.0967 57.9092C34.3583 58.6477 33.3568 59.0625 32.3125 59.0625H8.6875C7.64321 59.0625 6.64169 58.6477 5.90327 57.9092C5.16484 57.1708 4.75 56.1693 4.75 55.125V7.875C4.75 6.83071 5.16484 5.82919 5.90327 5.09077C6.64169 4.35234 7.64321 3.9375 8.6875 3.9375H32.3125ZM8.6875 0C6.59892 0 4.59588 0.829685 3.11903 2.30653C1.64218 3.78338 0.8125 5.78642 0.8125 7.875V55.125C0.8125 57.2136 1.64218 59.2166 3.11903 60.6935C4.59588 62.1703 6.59892 63 8.6875 63H32.3125C34.4011 63 36.4041 62.1703 37.881 60.6935C39.3578 59.2166 40.1875 57.2136 40.1875 55.125V7.875C40.1875 5.78642 39.3578 3.78338 37.881 2.30653C36.4041 0.829685 34.4011 0 32.3125 0L8.6875 0Z" fill="black"/>
<path d="M20.5 55.125C21.5443 55.125 22.5458 54.7102 23.2842 53.9717C24.0227 53.2333 24.4375 52.2318 24.4375 51.1875C24.4375 50.1432 24.0227 49.1417 23.2842 48.4033C22.5458 47.6648 21.5443 47.25 20.5 47.25C19.4557 47.25 18.4542 47.6648 17.7158 48.4033C16.9773 49.1417 16.5625 50.1432 16.5625 51.1875C16.5625 52.2318 16.9773 53.2333 17.7158 53.9717C18.4542 54.7102 19.4557 55.125 20.5 55.125Z" fill="black"/>
</svg>
